<?xml version="1.0" encoding="UTF-8" standalone="no"?>
<!-- Created with Inkscape (http://www.inkscape.org/) -->

<svg
   width="210mm"
   height="297mm"
   viewBox="0 0 210 297"
   version="1.1"
   id="svg1"
   xmlns="http://www.w3.org/2000/svg"
   xmlns:svg="http://www.w3.org/2000/svg">
  <defs
     id="defs1" />
  <g
     id="layer1">
    <path
       style="fill:#fbfbfb;fill-opacity:1;stroke:#000000;stroke-width:0.846432;stroke-opacity:1"
       d="m 90.140516,68.438793 -63.139438,88.031697 50.32854,3.07087 -47.583341,79.84249 50.328535,-3.07086 v 45.03937 l 34.772448,-1.02363 0.91505,-45.03936 h 43.00803 l -45.75322,-76.77164 47.58336,-2.04725 z"
       id="path1" />
    <ellipse
       style="fill:#fbfbfb;fill-opacity:1;stroke:#000000;stroke-width:0.846432;stroke-opacity:1"
       id="path4"
       cx="43.014683"
       cy="176.43034"
       rx="8.6931114"
       ry="9.7244072" />
    <path
       style="fill:#fbfbfb;fill-opacity:1;stroke:#000000;stroke-width:0.846432;stroke-opacity:1"
       d="m 44.387305,154.42325 c -1.27112,0.98868 1.137056,12.03513 0,13.30708 -0.852265,0.95337 -0.915062,-0.0803 -0.915062,2.04724"
       id="path5" />
    <ellipse
       style="fill:#fbfbfb;fill-opacity:1;stroke:#000000;stroke-width:0.846432;stroke-opacity:1"
       id="path6"
       cx="155.56763"
       cy="251.15475"
       rx="9.6081753"
       ry="10.74803" />
    <path
       style="fill:#fbfbfb;fill-opacity:1;stroke:#000000;stroke-width:0.846432;stroke-opacity:1"
       d="m 158.77034,244.50197 c -2.41745,-3.80883 -0.78795,-9.2126 -4.57533,-9.2126"
       id="path7" />
    <path
       style="fill:#fbfbfb;fill-opacity:1;stroke:#000000;stroke-width:0.264583;stroke-opacity:1"
       id="path8"
       d="m 99.834208,27.227512 -7.955239,-5.521705 -8.125525,5.267913 2.793149,-9.272183 -7.521009,-6.099958 9.681501,-0.20882 3.477286,-9.0378946 3.190347,9.1431256 9.670092,0.514232 -7.70976,5.859582 z"
       transform="matrix(3.0247269,0,0,3.3835617,-186.2089,-0.14387476)" />
  </g>
</svg>
